HIERARCHY
ROOT hip
{
  OFFSET 0 0 0
  CHANNELS 6 Xposition Yposition Zposition Zrotation Yrotation Xrotation
  JOINT abdomen
  {
    OFFSET 0 20.6881 -0.73152
    CHANNELS 3 Zrotation Xrotation Yrotation
    JOINT chest
    {
      OFFSET 0 11.7043 -0.48768
      CHANNELS 3 Zrotation Xrotation Yrotation
      JOINT neck
      {
        OFFSET 0 22.1894 -2.19456
        CHANNELS 3 Zrotation Xrotation Yrotation
        JOINT head
        {
          OFFSET -0.24384 7.07133 1.2192
          CHANNELS 3 Zrotation Xrotation Yrotation
          JOINT leftEye
          {
            OFFSET 4.14528 8.04674 8.04672
            CHANNELS 3 Zrotation Xrotation Yrotation
            End Site
            {
              OFFSET 1 0 0
            }
          }
          JOINT rightEye
          {
            OFFSET -3.6576 8.04674 8.04672
            CHANNELS 3 Zrotation Xrotation Yrotation
            End Site
            {
              OFFSET 1 0 0
            }
          }
        }
      }
      JOINT rCollar
      {
        OFFSET -2.68224 19.2634 -4.8768
        CHANNELS 3 Zrotation Xrotation Yrotation
        JOINT rShldr
        {
          OFFSET -8.77824 -1.95073 1.46304
          CHANNELS 3 Zrotation Xrotation Yrotation
          JOINT rForeArm
          {
            OFFSET -28.1742 -1.7115 0.48768
            CHANNELS 3 Zrotation Xrotation Yrotation
            JOINT rHand
            {
              OFFSET -22.5879 0.773209 7.07136
              CHANNELS 3 Zrotation Xrotation Yrotation
              JOINT rThumb1
              {
                OFFSET -1.2192 -0.487915 3.41376
                CHANNELS 3 Zrotation Xrotation Yrotation
                JOINT rThumb2
                {
                  OFFSET -3.37035 -0.52449 3.41376
                  CHANNELS 3 Zrotation Xrotation Yrotation
                  End Site
                  {
                    OFFSET -1.78271 -1.18214 1.43049
                  }
                }
              }
              JOINT rIndex1
              {
                OFFSET -7.75947 0.938293 5.60832
                CHANNELS 3 Zrotation Xrotation Yrotation
                JOINT rIndex2
                {
                  OFFSET -2.54057 -0.884171 1.56538
                  CHANNELS 3 Zrotation Xrotation Yrotation
                  End Site
                  {
                    OFFSET -1.62519 -0.234802 1.16502
                  }
                }
              }
              JOINT rMid1
              {
                OFFSET -8.24714 1.18213 3.41376
                CHANNELS 3 Zrotation Xrotation Yrotation
                JOINT rMid2
                {
                  OFFSET -3.10165 -0.590103 1.0647
                  CHANNELS 3 Zrotation Xrotation Yrotation
                  End Site
                  {
                    OFFSET -2.48547 -0.328903 0.83742
                  }
                }
              }
              JOINT rRing1
              {
                OFFSET -8.82822 0.546677 1.51678
                CHANNELS 3 Zrotation Xrotation Yrotation
                JOINT rRing2
                {
                  OFFSET -2.60934 -0.819778 -0.0198488
                  CHANNELS 3 Zrotation Xrotation Yrotation
                  End Site
                  {
                    OFFSET -2.33842 -0.294052 0.168128
                  }
                }
              }
              JOINT rPinky1
              {
                OFFSET -8.27202 -0.0477905 -0.4584
                CHANNELS 3 Zrotation Xrotation Yrotation
                JOINT rPinky2
                {
                  OFFSET -1.82734 -0.647385 -0.700984
                  CHANNELS 3 Zrotation Xrotation Yrotation
                  End Site
                  {
                    OFFSET -1.69225 -0.51767 -0.607171
                  }
                }
              }
            }
          }
        }
      }
      JOINT lCollar
      {
        OFFSET 2.68224 19.2634 -4.8768
        CHANNELS 3 Zrotation Xrotation Yrotation
        JOINT lShldr
        {
          OFFSET 8.77824 -1.95073 1.46304
          CHANNELS 3 Zrotation Xrotation Yrotation
          JOINT lForeArm
          {
            OFFSET 28.1742 -1.7115 0.48768
            CHANNELS 3 Zrotation Xrotation Yrotation
            JOINT lHand
            {
              OFFSET 22.5879 0.773209 7.07136
              CHANNELS 3 Zrotation Xrotation Yrotation
              JOINT lThumb1
              {
                OFFSET 1.2192 -0.487915 3.41376
                CHANNELS 3 Zrotation Xrotation Yrotation
                JOINT lThumb2
                {
                  OFFSET 3.37035 -0.52449 3.41376
                  CHANNELS 3 Zrotation Xrotation Yrotation
                  End Site
                  {
                    OFFSET 1.78271 -1.18214 1.43049
                  }
                }
              }
              JOINT lIndex1
              {
                OFFSET 7.75947 0.938293 5.60832
                CHANNELS 3 Zrotation Xrotation Yrotation
                JOINT lIndex2
                {
                  OFFSET 2.54057 -0.884171 1.56538
                  CHANNELS 3 Zrotation Xrotation Yrotation
                  End Site
                  {
                    OFFSET 1.62519 -0.234802 1.16502
                  }
                }
              }
              JOINT lMid1
              {
                OFFSET 8.24714 1.18213 3.41376
                CHANNELS 3 Zrotation Xrotation Yrotation
                JOINT lMid2
                {
                  OFFSET 3.10165 -0.590103 1.0647
                  CHANNELS 3 Zrotation Xrotation Yrotation
                  End Site
                  {
                    OFFSET 2.48547 -0.328903 0.83742
                  }
                }
              }
              JOINT lRing1
              {
                OFFSET 8.82822 0.546677 1.51678
                CHANNELS 3 Zrotation Xrotation Yrotation
                JOINT lRing2
                {
                  OFFSET 2.60934 -0.819778 -0.0198488
                  CHANNELS 3 Zrotation Xrotation Yrotation
                  End Site
                  {
                    OFFSET 2.33842 -0.294052 0.168128
                  }
                }
              }
              JOINT lPinky1
              {
                OFFSET 8.27202 -0.0477905 -0.4584
                CHANNELS 3 Zrotation Xrotation Yrotation
                JOINT lPinky2
                {
                  OFFSET 1.82734 -0.647385 -0.700984
                  CHANNELS 3 Zrotation Xrotation Yrotation
                  End Site
                  {
                    OFFSET 1.69225 -0.51767 -0.607171
                  }
                }
              }
            }
          }
        }
      }
    }
  }
  JOINT rButtock
  {
    OFFSET -8.77824 4.35084 1.2192
    CHANNELS 3 Zrotation Xrotation Yrotation
    JOINT rThigh
    {
      OFFSET 0 -1.70687 -2.19456
      CHANNELS 3 Zrotation Xrotation Yrotation
      JOINT rShin
      {
        OFFSET 0 -36.8199 0.73152
        CHANNELS 3 Zrotation Xrotation Yrotation
        JOINT rFoot
        {
          OFFSET 0.73152 -45.1104 -5.12064
          CHANNELS 3 Zrotation Xrotation Yrotation
          End Site
          {
            OFFSET -1.1221 -3.69964 12.103
          }
        }
      }
    }
  }
  JOINT lButtock
  {
    OFFSET 8.77824 4.35084 1.2192
    CHANNELS 3 Zrotation Xrotation Yrotation
    JOINT lThigh
    {
      OFFSET 0 -1.70687 -2.19456
      CHANNELS 3 Zrotation Xrotation Yrotation
      JOINT lShin
      {
        OFFSET 0 -36.8199 0.73152
        CHANNELS 3 Zrotation Xrotation Yrotation
        JOINT lFoot
        {
          OFFSET -0.73152 -45.1104 -5.12064
          CHANNELS 3 Zrotation Xrotation Yrotation
          End Site
          {
            OFFSET 1.1221 -3.69964 12.103
          }
        }
      }
    }
  }
}
MOTION
Frames:	6
Frame Time:	0.00833333
3.354 60.1494 -9.089 -7.944041 -4.152522 5.602815 -4.181532 6.501081 0.30086 3.243674 -7.844616 24.169976 7.633635 29.109247 134.753676 -29.653841 34.278513 -148.063484 -0.003467 -0.0 0.004679 0.001291 -0.0 -0.00188 -85.53755 68.183429 88.688985 76.323526 -50.953086 83.349156 -88.884347 -34.168672 54.23896 18.929693 -35.628192 11.959486 -178.518215 -16.064709 89.475841 -91.096819 14.282668 34.384622 -155.376046 -24.639968 122.179614 172.545615 -54.735067 108.447634 -0.198022 0.580469 0.110962 1.85472 4.021004 0.552998 -0.000544 -0.018376 -0.006691 -155.40525 -1.038569 171.970042 15.507028 54.138127 12.138178 -9.708188 -23.676618 -10.494962 6.473225 26.864972 -7.715453 -68.258002 -4.504833 -16.206979 -0.762718 -19.665147 -105.962206 8.031393 0.082429 2.497432 93.743678 37.963374 -53.548438 82.544422 -3.772339 -59.5751 90.226898 41.073089 -75.796234 1.541365 12.316089 2.697384 -173.120596 -66.297516 -137.611051 16.432512 39.872225 -13.136763 145.119434 0.185729 179.186065 152.800862 -22.518358 175.823183 125.805265 -27.876136 123.550673 -67.326416 83.975188 28.659971 -0.0 3e-06 0.000699 -13.601567 -22.827478 180.0 -136.920591 -65.832299 -126.308605 50.278416 8.850524 166.899495 -179.980267 75.748541 -0.016236 -169.78506 15.913543 -33.313239 -67.288962 53.951613 146.267186 -73.644455 30.533882 -14.224064
3.2501 60.7535 -7.9302 -8.165163 -2.865548 4.782484 -6.133667 6.176056 44.967927 -1.46729 -8.540819 -21.203526 -11.582461 20.595436 -59.470954 36.688908 -5.761655 39.577619 0.002128 -0.0 -0.001515 0.002128 -0.0 -0.001515 -40.032584 -86.056612 -61.563681 25.756185 9.099654 -25.410216 -2.845298 74.597687 112.282921 -9.299772 40.999519 3.592035 -5.763588 5.575177 1.158874 -122.192494 -16.492186 108.495614 -27.422575 30.638642 20.099288 -5.88219 18.3877 3.497025 -89.835834 60.702431 81.262647 -178.348336 -46.200374 141.832079 -145.120635 1.974898 -179.747935 11.973246 40.209986 -4.421804 26.971275 80.122915 10.138593 1.275039 -0.29186 -1.024146 -0.133087 -0.807127 0.17887 -65.593422 23.239422 6.697805 -164.055448 41.86163 -50.231229 172.188627 12.020173 -140.957547 177.936777 -15.505654 -89.546538 155.932242 3.947675 -83.959796 0.327974 0.529747 -0.186488 158.274987 -8.933407 -110.078836 15.424071 32.961326 -11.296546 163.620366 -6.19913 -143.461056 -0.005109 1.771207 -0.557649 -8.933662 14.181182 -1.881481 146.213496 15.428377 142.736266 39.859316 -47.778939 40.512548 179.984225 75.749543 0.012979 158.446246 49.363166 27.497676 129.21007 61.056972 61.859873 29.852443 15.922032 164.713187 -0.000907 -0.000203 0.001166 15.921366 -56.449415 13.547602 -11.67399 76.506714 95.650633 -149.408993 9.85319 45.322407
3.1193999999999997 61.365 -6.792 -8.481495 -1.387101 3.952968 -2.542495 3.553417 -124.710112 2.527924 3.376946 147.738363 -7.070947 15.571624 -21.561864 20.18104 -23.702836 2.662761 0.002933 0.0 0.00437 0.001759 -0.0 -0.001387 3.268881 -26.755771 -5.242297 -129.339994 -27.054484 179.281734 90.180759 -33.533929 -106.932839 -173.29652 44.252207 147.379846 -178.927522 -16.453627 89.4227 -138.672986 12.945581 71.769017 -50.386224 40.825243 40.02601 5.833324 1.157366 -2.630572 -160.82549 -7.141559 143.317727 9.980273 -20.331625 -1.140959 -0.021791 -1.725464 -0.540453 -77.293689 78.802054 90.847676 -1.202124 -3.047857 -1.115706 3.303604 2.152703 0.660188 155.460394 -3.228064 -161.776653 -128.953524 -33.226846 -160.881919 22.694967 -61.177366 -82.731829 4.396331 -10.217753 3.174471 0.542626 0.536773 -0.085888 -10.756931 -15.220273 7.965979 123.870369 22.788969 -104.456046 160.871086 -6.32209 -117.278249 160.097766 -4.900767 -142.970581 5.100696 21.252225 -4.815026 70.378726 -72.131234 87.279314 150.978276 -0.380845 -176.34283 124.851603 -29.038153 122.62095 136.146936 -14.26475 133.562669 0.000502 0.001167 0.000753 -16.567811 -28.964601 180.0 -116.648437 -61.164762 135.182955 -15.311355 -18.779866 -83.250088 -179.99984 75.749012 -0.000165 -171.675426 17.980148 154.638379 58.258389 -52.843952 -134.938227 84.981357 27.292189 -6.122862
2.9865 62.0097 -5.6164 -8.736588 0.122381 3.003005 -2.290143 6.269411 -69.254322 6.144757 -1.16116 91.738573 -6.960429 15.868521 -21.534927 20.365055 -23.606011 2.021818 0.003099 -0.0 -0.000503 -0.002264 -0.0 0.000464 0.482444 -3.000794 -0.653626 73.447469 -67.596321 27.312829 35.542666 78.627567 73.476004 -13.550676 50.185796 5.770808 -22.247689 19.446145 7.126198 29.550146 -30.402445 -2.1419 73.41927 -73.571708 26.562206 17.380172 -1.051922 -5.970951 -10.974742 25.79028 7.63898 -42.021038 58.552286 36.151432 0.000827 0.02268 0.006571 9.02049 14.685639 1.96304 -8.191607 -17.575497 -7.730596 -137.469906 -13.77723 -135.491523 9.651856 34.836118 -11.199482 -64.186205 -1.000914 -23.393263 -106.349598 43.002163 -90.2231 151.678488 48.996958 -125.962262 173.770782 -11.439954 -89.890966 -108.309894 -65.177216 -81.306761 132.542436 13.161411 -110.915681 22.478935 41.349952 -9.361945 160.673314 -6.667926 -143.244794 164.043387 -7.047801 -143.184833 0.016106 -1.322995 0.416867 156.061299 -15.121479 -173.642655 74.132578 -51.747832 72.617911 80.614416 -53.520138 81.161874 179.965202 75.749486 0.028631 158.445316 42.608869 14.652003 151.497019 76.542351 161.992761 20.352361 -2.339842 38.009251 -179.995984 75.750921 -0.004143 -171.371966 22.33014 -0.0 -40.927033 71.920202 -70.221249 78.226234 -26.378419 160.352387
2.8183 62.629599999999996 -4.4366 -9.084514 1.665915 1.99325 -3.862038 3.796901 -160.556022 -1.503129 3.690648 -177.763547 -2.102392 14.510553 5.410821 1.814206 -28.143994 -29.534791 0.002271 -0.0 -0.000313 0.002271 -0.0 -0.000313 -120.44954 60.638198 124.076984 -93.862673 47.646283 85.74768 -105.447902 37.22601 -121.857412 8.939304 -13.304655 5.399628 83.253687 -50.258612 33.616063 -88.948031 38.800746 51.599006 -108.428598 34.161404 91.742804 -104.266341 50.57681 79.124444 2.099671 -6.305569 -1.080391 -145.194677 36.297514 132.188576 0.004597 1.77135 0.556729 4.154899 41.433476 7.703363 12.987752 44.344585 10.759543 -160.721206 55.489316 -149.500422 80.165891 68.371051 -83.261066 125.268617 6.922583 -117.12133 176.964077 62.543283 75.781277 9.397613 6.536109 1.692434 78.492769 38.703035 -42.741524 158.730712 -37.183991 -82.264076 -60.461795 -70.523595 -15.709489 -54.544862 -51.055133 -5.328316 167.373884 -28.008469 -145.270402 25.639242 49.014908 -21.162245 145.099325 -1.520933 178.648713 -12.190781 35.170777 5.017289 152.874887 39.99192 148.058871 42.85499 -48.830156 42.940536 179.995512 75.749658 0.00463 158.18921 39.101328 -0.0 -164.991365 66.577249 30.131603 11.883472 24.87369 121.562391 -179.987007 75.748451 -0.00889 -172.766987 23.895186 66.286938 69.637157 33.567748 -165.363057 55.312471 -45.025366 137.149675
2.6485000000000003 63.2845 -3.2413 -9.353881 3.265955 0.918877 -2.572228 6.94654 -85.843931 5.374611 0.887459 106.463651 9.98608 24.706435 99.299989 -36.572063 13.073051 -120.960785 -0.004279 -0.0 0.000312 0.001708 -0.0 -0.000475 -2.645684 13.40043 3.318572 49.380589 -18.113607 18.653126 177.177692 -0.538118 41.609226 160.508824 -29.115284 142.058796 -1.847071 1.813416 0.312258 -132.674147 -32.14255 115.844085 -1.159985 1.861299 0.669687 -6.97787 22.848315 6.687499 -160.097113 -4.901104 142.96976 2.664957 1.634639 0.58416 0.005349 0.918111 0.287869 -155.483261 -1.035302 171.971416 -162.36747 72.063561 -150.900975 -161.263265 52.500141 -147.678762 155.613686 -4.23636 -161.991261 -11.477015 -75.945799 -53.152651 133.344296 -24.242725 47.429106 -5.929708 -39.369257 1.492931 178.927992 -16.453503 -89.421744 -111.311311 -67.530192 -84.67818 -12.089319 -21.546701 5.086501 -5.499625 11.900526 -1.341933 0.057118 0.167894 -0.032838 34.36817 55.162966 -28.968738 145.100323 -1.523249 178.650115 150.211509 -35.126521 173.022154 143.935748 8.266 140.719156 147.256546 11.062939 141.547833 -179.993796 75.749269 -0.006401 157.37993 33.090061 -180.0 -170.904408 -72.190018 69.740315 -129.12157 49.420971 46.157128 179.987688 75.750905 0.008424 -170.715458 25.59469 -98.667217 -67.424073 -13.484003 69.054852 141.527308 10.410271 -44.449625
